# xmcd CD database file
#
# Track frame offsets:
#	150
#	12850
#	33497
#	51622
#	73695
#	91957
#	107342
#	124372
#	143252
#	160565
#	175602
#	197185
#	217475
#	232667
#
# Disc length: 3341 seconds
#
# Revision: 0
# Processed by: cddbd v1.5.2PL0 Copyright (c) Steve Scherf et al.
# Submitted via: CDex 1.70beta2
#
DISCID=bb0d0b0e
DTITLE=Ronny Spears and Honky Tonk Hardcore - Texas Music
DYEAR=1993
DGENRE=Country
TTITLE0=Texas Music
TTITLE1=Love Comes So Easy
TTITLE2=North of Mexico
TTITLE3=Make Love To Me
TTITLE4=And The Angels Will Sing
TTITLE5=This Old Smoke Filled Bar
TTITLE6=Driving Down Memory Lane
TTITLE7=Honey Where Did You Go
TTITLE8=The Bottle Let Me Down
TTITLE9=Going Down to Baghdad
TTITLE10=My Woman Of The 90's
TTITLE11=My Texas Heroes
TTITLE12=One Night Stands
TTITLE13=Raisin' Hell and Raisin' Cain
EXTD=YEAR: 1993
EXTT0=
EXTT1=
EXTT2=
EXTT3=
EXTT4=
EXTT5=
EXTT6=
EXTT7=
EXTT8=
EXTT9=
EXTT10=
EXTT11=
EXTT12=
EXTT13=
PLAYORDER=
